<svg width="42" height="24" viewBox="0 0 42 24" fill="none" xmlns="http://www.w3.org/2000/svg">
<path d="M4.93018 21.3099L6.5 18.5L15.1612 18.9548M15.1612 18.9548L14.4512 22.5M15.1612 18.9548H22.5M22.5 18.9548L22.7821 22.5M22.5 18.9548L29.3278 16.5494M29.3278 16.5494L31.368 20.2046M29.3278 16.5494L33.982 12.3626M33.982 12.3626L37.6587 14.7642M33.982 12.3626L36.4685 9.4086H40.0389" stroke="url(#paint0_linear_5_1065)" stroke-width="2" stroke-linecap="round"/>
<path d="M20.9121 19.2046C10.184 19.2046 6.06007 19.1869 1.57302 17.2246C3.65091 14.6297 6.54082 11.0841 9.77442 7.99528C11.6068 6.24501 13.526 4.66466 15.4449 3.49501C17.3698 2.32167 19.2376 1.59651 20.9786 1.48044L21.0194 1.47772L21.0595 1.47172L21.0597 1.4717L21.0597 1.47169L21.061 1.47151L21.0676 1.47053L21.097 1.46629C21.1236 1.46249 21.1641 1.45679 21.2177 1.44949C21.3251 1.43487 21.4849 1.41385 21.6913 1.38876C22.1041 1.33859 22.7024 1.27227 23.4377 1.20863C24.9101 1.0812 26.9224 0.965364 29.0897 1.0096C31.262 1.05393 33.5591 1.25862 35.6122 1.75906C37.3107 2.17306 38.7744 2.77328 39.8648 3.59604C39.1659 4.54622 38.4533 5.63434 37.7162 6.76003C37.5061 7.08081 37.2941 7.40463 37.0798 7.72919C35.8855 9.53786 34.5909 11.4191 33.0829 13.1307C30.0791 16.5402 26.2966 19.2046 20.9121 19.2046Z" stroke="url(#paint1_linear_5_1065)" stroke-width="2"/>
<path d="M25 10.5L22.6675 3.11377C22.4615 2.4615 21.5385 2.4615 21.3325 3.11377L19 10.5L21.0464 16.9803C21.3407 17.9121 22.6593 17.9121 22.9536 16.9803L25 10.5Z" fill="url(#paint2_linear_5_1065)"/>
<defs>
<linearGradient id="paint0_linear_5_1065" x1="40.0389" y1="15.9543" x2="4.93018" y2="15.9543" gradientUnits="userSpaceOnUse">
<stop stop-color="#FFB92D"/>
<stop offset="1" stop-color="#FF00AA"/>
</linearGradient>
<linearGradient id="paint1_linear_5_1065" x1="41.2291" y1="10.1023" x2="0" y2="10.1023" gradientUnits="userSpaceOnUse">
<stop stop-color="#FFB92D"/>
<stop offset="1" stop-color="#FF00AA"/>
</linearGradient>
<linearGradient id="paint2_linear_5_1065" x1="22" y1="20" x2="22" y2="1" gradientUnits="userSpaceOnUse">
<stop stop-color="#FFB92D"/>
<stop offset="1" stop-color="#FF00AA"/>
</linearGradient>
</defs>
</svg>

