<svg width="39" height="33" viewBox="0 0 39 33" fill="none" xmlns="http://www.w3.org/2000/svg">
<path d="M3.89461 25.2109C3.46535 25.5584 3.39907 26.188 3.74656 26.6173C4.09406 27.0466 4.72375 27.1128 5.15301 26.7654L3.89461 25.2109ZM13.7738 18.5L14.7516 18.7095C14.8149 18.4143 14.7413 18.1062 14.5515 17.8713C14.3616 17.6365 14.0758 17.5 13.7738 17.5V18.5ZM11.4746 24.4571C11.3589 24.9972 11.7028 25.5288 12.2429 25.6445C12.7829 25.7602 13.3145 25.4162 13.4302 24.8762L11.4746 24.4571ZM6.72619 17.5C6.17391 17.5 5.72619 17.9477 5.72619 18.5C5.72619 19.0523 6.17391 19.5 6.72619 19.5V17.5ZM4.52381 1.20239H3V3.20239H4.52381V1.20239ZM0 4.20239V29.2738H2V4.20239H0ZM3 32.2738H36V30.2738H3V32.2738ZM39 29.2738V28.1905H37V29.2738H39ZM5.15301 26.7654L14.403 19.2773L13.1446 17.7228L3.89461 25.2109L5.15301 26.7654ZM12.796 18.2905L11.4746 24.4571L13.4302 24.8762L14.7516 18.7095L12.796 18.2905ZM13.7738 17.5H6.72619V19.5H13.7738V17.5ZM36 32.2738C37.6569 32.2738 39 30.9307 39 29.2738H37C37 29.8261 36.5523 30.2738 36 30.2738V32.2738ZM0 29.2738C0 30.9307 1.34315 32.2738 3 32.2738V30.2738C2.44772 30.2738 2 29.8261 2 29.2738H0ZM3 1.20239C1.34314 1.20239 0 2.54554 0 4.20239H2C2 3.65011 2.44771 3.20239 3 3.20239V1.20239Z" fill="url(#paint0_linear_5_1079)"/>
<path d="M22.3852 27.1755C22.7107 28.7159 19.9442 28.8848 19.1629 26.911C17.3081 26.3436 17.2936 23.494 18.7804 23.7005C20.2672 23.9071 21.359 22.7231 22.4094 23.5432C23.4597 24.3633 22.0597 25.635 22.3852 27.1755Z" fill="#C68DF1"/>
<ellipse cx="19.299" cy="21.9568" rx="0.878745" ry="1.61103" transform="rotate(43.9493 19.299 21.9568)" fill="#C68DF1"/>
<ellipse cx="22.5032" cy="21.5873" rx="0.878745" ry="1.46457" transform="rotate(43.9493 22.5032 21.5873)" fill="#C68DF1"/>
<ellipse cx="24.4011" cy="23.417" rx="0.878745" ry="1.46457" transform="rotate(43.9493 24.4011 23.417)" fill="#C68DF1"/>
<ellipse cx="23.9386" cy="26.4292" rx="0.878745" ry="1.61103" transform="rotate(43.9493 23.9386 26.4292)" fill="#C68DF1"/>
<path d="M31.8084 19.1519C31.918 20.5364 29.4788 20.3696 29.0197 18.5543C27.4618 17.8471 27.773 15.3528 29.0501 15.7024C30.3272 16.0521 31.4168 15.1405 32.2424 15.9773C33.0679 16.8141 31.6987 17.7674 31.8084 19.1519Z" fill="#C68DF1"/>
<ellipse cx="29.7021" cy="14.2361" rx="0.775132" ry="1.42108" transform="rotate(51.3533 29.7021 14.2361)" fill="#C68DF1"/>
<ellipse cx="32.5469" cy="14.2772" rx="0.775132" ry="1.29189" transform="rotate(51.3533 32.5469 14.2772)" fill="#C68DF1"/>
<ellipse cx="33.9993" cy="16.0933" rx="0.775132" ry="1.29189" transform="rotate(51.3533 33.9993 16.0933)" fill="#C68DF1"/>
<ellipse cx="33.2521" cy="18.6757" rx="0.775132" ry="1.42108" transform="rotate(51.3533 33.2521 18.6757)" fill="#C68DF1"/>
<path d="M31.8084 7.69951C31.918 9.08401 29.4788 8.9172 29.0197 7.10189C27.4618 6.39475 27.773 3.90039 29.0501 4.25007C30.3272 4.59974 31.4168 3.68818 32.2424 4.52497C33.0679 5.36175 31.6987 6.31501 31.8084 7.69951Z" fill="#C68DF1"/>
<ellipse cx="29.7021" cy="2.78374" rx="0.775133" ry="1.42108" transform="rotate(51.3533 29.7021 2.78374)" fill="#C68DF1"/>
<ellipse cx="32.5469" cy="2.82476" rx="0.775133" ry="1.29189" transform="rotate(51.3533 32.5469 2.82476)" fill="#C68DF1"/>
<ellipse cx="33.9993" cy="4.64092" rx="0.775133" ry="1.29189" transform="rotate(51.3533 33.9993 4.64092)" fill="#C68DF1"/>
<ellipse cx="33.2521" cy="7.22328" rx="0.775133" ry="1.42108" transform="rotate(51.3533 33.2521 7.22328)" fill="#C68DF1"/>
<path d="M21.5041 14.8422C21.8296 16.3826 19.0631 16.5515 18.2818 14.5777C16.427 14.0103 16.4125 11.1607 17.8993 11.3672C19.3861 11.5738 20.4779 10.3898 21.5283 11.2099C22.5786 12.03 21.1786 13.3017 21.5041 14.8422Z" fill="#C68DF1"/>
<ellipse cx="18.4181" cy="9.62353" rx="0.878746" ry="1.61103" transform="rotate(43.9493 18.4181 9.62353)" fill="#C68DF1"/>
<ellipse cx="21.6223" cy="9.25402" rx="0.878746" ry="1.46458" transform="rotate(43.9493 21.6223 9.25402)" fill="#C68DF1"/>
<ellipse cx="23.5203" cy="11.0836" rx="0.878746" ry="1.46458" transform="rotate(43.9493 23.5203 11.0836)" fill="#C68DF1"/>
<ellipse cx="23.0578" cy="14.0959" rx="0.878746" ry="1.61103" transform="rotate(43.9493 23.0578 14.0959)" fill="#C68DF1"/>
<defs>
<linearGradient id="paint0_linear_5_1079" x1="38" y1="16.7381" x2="1" y2="16.7381" gradientUnits="userSpaceOnUse">
<stop stop-color="#FFB92D"/>
<stop offset="1" stop-color="#FF00AA"/>
</linearGradient>
</defs>
</svg>

