<svg width="34" height="28" viewBox="0 0 34 28" fill="none" xmlns="http://www.w3.org/2000/svg">
<path d="M16.8332 10.9323L18.9878 14.8915L15.7559 17.7194M20.6038 16.5882L17.3718 19.4162" stroke="#FFEDAE" stroke-width="1.5"/>
<path d="M22.2097 23.6582C23.4217 22.4462 24.0277 21.8402 23.4217 20.6282C22.4886 18.762 21.0818 22.187 16.7558 23.0522C13.7258 23.6582 11.3018 23.6582 8.27187 22.4462C5.40291 21.2986 1.60596 18.8103 1.60596 18.8103" stroke="url(#paint0_linear_5_1071)" stroke-width="2"/>
<rect x="22.2363" y="13" width="2" height="2" fill="#FFEDAE"/>
<rect x="27.6636" y="8.50836" width="2" height="2" fill="#FFEDAE"/>
<rect x="27.2363" y="13" width="2" height="2" fill="#C68DF1"/>
<path d="M26.1786 2.00101L29.1456 4.94179L32.4528 2.60932M30.2448 6.84563L33.552 4.51316" stroke="#FFEDAE" stroke-width="1.5"/>
<path d="M22.8237 24.4475C23.2596 24.1084 23.3382 23.4802 22.9991 23.0442C22.66 22.6083 22.0317 22.5297 21.5958 22.8688L22.8237 24.4475ZM1.20554 16.9484L2.191 16.7785L1.20554 16.9484ZM5.44749 6.04054L6.06564 6.8266L5.44749 6.04054ZM16.3553 4.22257L16.5831 3.24885L16.3553 4.22257ZM25.3634 11.8851C25.9138 11.9303 26.3967 11.5208 26.4419 10.9704L27.1787 2.00057C27.2239 1.45014 26.8144 0.967269 26.2639 0.922053C25.7135 0.876837 25.2306 1.28639 25.1854 1.83682L24.5305 9.80997L16.5573 9.155C16.0069 9.10978 15.524 9.51934 15.4788 10.0698C15.4336 10.6202 15.8431 11.1031 16.3936 11.1483L25.3634 11.8851ZM21.5958 22.8688C18.9928 24.8933 16.6133 25.7928 14.426 25.9676C12.2351 26.1426 10.1455 25.5979 8.11313 24.5817L7.2187 26.3705C9.48789 27.5051 11.9431 28.1723 14.5853 27.9612C17.2311 27.7498 19.9727 26.6649 22.8237 24.4475L21.5958 22.8688ZM8.11313 24.5817C6.39462 23.7224 5.0898 22.7153 4.13187 21.476C3.17632 20.2399 2.52592 18.7212 2.191 16.7785L0.22008 17.1183C0.601019 19.3279 1.36283 21.164 2.54951 22.6992C3.73382 24.2313 5.30125 25.4118 7.2187 26.3705L8.11313 24.5817ZM2.191 16.7785C1.82842 14.6754 1.98781 12.8434 2.61932 11.2293C3.25131 9.61394 4.38217 8.15048 6.06564 6.8266L4.82933 5.25449C2.92009 6.75592 1.54172 8.49434 0.756792 10.5006C-0.0286264 12.5081 -0.193853 14.7173 0.22008 17.1183L2.191 16.7785ZM6.06564 6.8266C7.63452 5.59283 9.14617 4.97009 10.7334 4.75238C12.3399 4.53202 14.0837 4.71822 16.1276 5.19629L16.5831 3.24885C14.422 2.74338 12.4091 2.5038 10.4616 2.77093C8.49482 3.04071 6.65507 3.81873 4.82933 5.25449L6.06564 6.8266ZM16.1276 5.19629C18.0099 5.63654 20.1225 7.15179 21.8439 8.67944C22.6853 9.42608 23.3986 10.144 23.9014 10.6753C24.1524 10.9405 24.35 11.1582 24.4838 11.3084C24.5507 11.3835 24.6016 11.4416 24.6352 11.4803C24.6519 11.4996 24.6644 11.5141 24.6724 11.5233C24.6763 11.528 24.6792 11.5313 24.6809 11.5333C24.6818 11.5343 24.6823 11.535 24.6826 11.5353C24.6828 11.5355 24.6828 11.5356 24.6828 11.5356C24.6828 11.5356 24.6828 11.5355 24.6828 11.5355C24.6827 11.5354 24.6826 11.5353 25.4452 10.8885C26.2079 10.2416 26.2077 10.2415 26.2076 10.2413C26.2075 10.2412 26.2073 10.241 26.2072 10.2409C26.2069 10.2405 26.2065 10.2401 26.2061 10.2396C26.2052 10.2385 26.204 10.2371 26.2025 10.2354C26.1996 10.232 26.1955 10.2272 26.1903 10.2211C26.1798 10.2089 26.1648 10.1914 26.1453 10.169C26.1064 10.1242 26.0499 10.0597 25.9771 9.97794C25.8315 9.81449 25.6203 9.5819 25.354 9.30054C24.8222 8.73865 24.0667 7.97805 23.1714 7.18353C21.4195 5.62886 18.9872 3.81115 16.5831 3.24885L16.1276 5.19629Z" fill="url(#paint1_linear_5_1071)"/>
<defs>
<linearGradient id="paint0_linear_5_1071" x1="23.6594" y1="21.2343" x2="1.60596" y2="21.2343" gradientUnits="userSpaceOnUse">
<stop stop-color="#FFB92D"/>
<stop offset="1" stop-color="#FF00AA"/>
</linearGradient>
<linearGradient id="paint1_linear_5_1071" x1="25.4452" y1="15.3302" x2="1" y2="15.3302" gradientUnits="userSpaceOnUse">
<stop stop-color="#FFB92D"/>
<stop offset="1" stop-color="#FF00AA"/>
</linearGradient>
</defs>
</svg>

